<svg height="250pt" preserveAspectRatio="xMidYMid meet" viewBox="0 0 250 250" width="250pt" xmlns="http://www.w3.org/2000/svg"><g transform="matrix(.1 0 0 -.1 0 250)"><path d="m0 1250v-1250h1250 1250v1250 1250h-1250-1250zm900 725c96-49 96-181 0-230-84-43-183 19-183 115s99 158 183 115zm852-365c161-60 266-248 238-426-28-177-145-296-319-326-66-11-129-6-218 18-23 6-23 5-23-80v-86h75 75v-100-100h-245-245v100 100h60 60v355 355h-40-40v100 101l183-1c101-1 195 4 212 9 45 16 162 6 227-19zm-802-400c0-419-4-480-40-550-21-41-63-81-106-103-37-19-161-43-170-34-4 4-9 40-12 81l-5 75 36 15c69 28 72 41 75 404l3 322h-55-56v100 100h165 165z"/><path d="m1512 1419c-71-35-82-60-82-181v-104l33-31c55-54 123-67 194-38 75 32 113 92 113 180 0 66-17 110-56 147-56 52-130 62-202 27z"/></g></svg>